<svg xmlns="http://www.w3.org/2000/svg" version="1.1" xmlns:xlink="http://www.w3.org/1999/xlink" xmlns:svgjs="http://svgjs.dev/svgjs" viewBox="0 0 800 800"><defs><filter id="ssspot-filter" x="-20%" y="-20%" width="140%" height="140%" filterUnits="objectBoundingBox" primitiveUnits="userSpaceOnUse" color-interpolation-filters="sRGB">
	<feTurbulence type="turbulence" baseFrequency="0.022 0.218" numOctaves="2" seed="189" stitchTiles="stitch" x="0%" y="0%" width="100%" height="100%" result="turbulence"></feTurbulence>
	<feGaussianBlur stdDeviation="0 3" x="0%" y="0%" width="100%" height="100%" in="turbulence" edgeMode="duplicate" result="blur"></feGaussianBlur>
	<feDisplacementMap in="SourceGraphic" in2="blur" scale="32" xChannelSelector="R" yChannelSelector="B" x="0%" y="0%" width="100%" height="100%" result="displacementMap"></feDisplacementMap>
</filter></defs><rect width="100%" height="100%" fill="hsl(0, 0%, 100%)"></rect><g fill="hsl(207, 90%, 54%)" filter="url(#ssspot-filter)"><circle r="3.977547047634162" cx="668.3155781610488" cy="299.5476305722816" opacity="0.7874052208557023"></circle><circle r="9.274995728979533" cx="679.9147696256998" cy="393.78542694995485" opacity="0.37826754225045855"></circle><circle r="8.187134446759746" cx="722.8683669154946" cy="707.7737385024618" opacity="0.6413236103036608"></circle><circle r="4.193175177650536" cx="218.5925984487395" cy="206.9047443683215" opacity="0.24224436328896462"></circle><circle r="6.550626728563465" cx="155.94778947006444" cy="520.8864395267628" opacity="0.40860872101073276"></circle><circle r="5.813598681252084" cx="106.96574699431767" cy="464.6135860047864" opacity="0.19155021356789265"></circle><circle r="8.275643941586953" cx="19.34039321946203" cy="283.773610882877" opacity="0.49956896030941045"></circle><circle r="9.65707738033263" cx="408.36716695294257" cy="477.0920226163522" opacity="0.23450215866940913"></circle><circle r="5.3156829399345" cx="756.3103846035419" cy="345.8195940189655" opacity="0.1481232873762291"></circle><circle r="4.688158491565675" cx="20.608876241820987" cy="51.286794905065825" opacity="0.4366031425003767"></circle><circle r="7.956386202030142" cx="440.7946101476828" cy="644.4339743514913" opacity="0.21090864210407817"></circle><circle r="4.815601542164957" cx="107.4003716059588" cy="134.94246767248848" opacity="0.7174217346951933"></circle><circle r="5.718100886141923" cx="289.7393860002466" cy="189.25635564701298" opacity="0.9464696421733805"></circle><circle r="12.047533477517979" cx="508.0506823461975" cy="30.471982476357315" opacity="0.7608101408807519"></circle><circle r="12.116026653217085" cx="22.316358624419987" cy="655.7131402771581" opacity="0.24537631463176252"></circle><circle r="6.593981200444253" cx="441.9847924605607" cy="512.993955066278" opacity="0.2821449326304356"></circle><circle r="4.555405269992849" cx="651.0819280195168" cy="427.1867535568946" opacity="0.8498033588060883"></circle><circle r="5.068843459947116" cx="348.77737689473" cy="58.42142960022567" opacity="0.8288483258783769"></circle><circle r="8.442190752456831" cx="145.00572811874054" cy="590.6144940781835" opacity="0.9698721575330539"></circle><circle r="7.759104006931606" cx="20.73712100971906" cy="494.4649077086522" opacity="0.39970609250736444"></circle><circle r="11.39955754299411" cx="405.6676994579444" cy="424.2234842028916" opacity="0.2272436784883654"></circle><circle r="5.486287076702238" cx="479.6152175543451" cy="125.38025970142756" opacity="0.45934851164619717"></circle><circle r="7.007708482708868" cx="112.31623762097641" cy="568.840291142876" opacity="0.6973554007546745"></circle><circle r="5.311255645190927" cx="213.17156140972503" cy="481.3434997681291" opacity="0.4907613077034736"></circle><circle r="6.185087889902013" cx="192.25931159977466" cy="148.7360508036835" opacity="0.9536931496720915"></circle><circle r="4.318404973055924" cx="246.18680162769093" cy="539.7757166801597" opacity="0.1406955143655337"></circle><circle r="6.06554390755665" cx="679.033929264946" cy="130.1998729089209" opacity="0.43600889540507537"></circle><circle r="3.872997046842514" cx="786.1556547892596" cy="261.1909788896548" opacity="0.9421417460785244"></circle><circle r="5.675083248834458" cx="731.8694732331456" cy="47.23328823798276" opacity="0.4605345450889904"></circle><circle r="6.846665791302238" cx="651.633094809137" cy="464.4694250630648" opacity="0.4063696488900642"></circle><circle r="9.84388259577541" cx="485.13627099061534" cy="676.6161526639049" opacity="0.8665900996374317"></circle><circle r="5.85315839183345" cx="708.2626852706514" cy="362.1952593808198" opacity="0.37793011352580497"></circle><circle r="10.070810039520719" cx="337.9598130549161" cy="284.89736847915776" opacity="0.5190090625944084"></circle><circle r="8.447304140983633" cx="628.2617244659662" cy="365.7270862366587" opacity="0.5932758534814211"></circle><circle r="9.792432283117929" cx="29.91759442803493" cy="751.1576963951483" opacity="0.7736107511142315"></circle><circle r="5.597233247862972" cx="768.9580934772426" cy="220.32842272686693" opacity="0.13728525067537467"></circle><circle r="7.577363401071894" cx="477.68223694067535" cy="458.89357700817305" opacity="0.7165443960702019"></circle><circle r="9.456457260090044" cx="69.21997811154093" cy="438.20944615556067" opacity="0.4886574149929015"></circle><circle r="4.766293212084546" cx="779.9877134961263" cy="43.610706897165635" opacity="0.1194092476053165"></circle><circle r="8.349552171361198" cx="618.272583150059" cy="592.4036864051003" opacity="0.7143355097961838"></circle><circle r="6.767422165637214" cx="126.76979907782784" cy="317.61321742618213" opacity="0.5844419630179938"></circle><circle r="6.7360751854954515" cx="728.9157069212821" cy="551.6557412707936" opacity="0.8156995588017786"></circle><circle r="6.353828320490916" cx="284.88332865508545" cy="244.8795536597935" opacity="0.18712547801226612"></circle><circle r="7.707690373583666" cx="459.65352605780237" cy="415.05262009173856" opacity="0.25120887547736004"></circle><circle r="6.43604991189899" cx="31.87256968721049" cy="79.8551153599459" opacity="0.44800044050466303"></circle><circle r="7.826486242149969" cx="458.0300660115622" cy="20.157602926732938" opacity="0.913779164327684"></circle><circle r="7.388017868529012" cx="783.2517187927584" cy="74.03506953143402" opacity="0.21781852474757912"></circle><circle r="6.74132591854873" cx="783.5574931040084" cy="646.5311686106978" opacity="0.9369214719951836"></circle><circle r="4.861402462778557" cx="789.0644736597322" cy="471.23907746845066" opacity="0.49860456490553673"></circle><circle r="7.744001690370786" cx="689.2812035567696" cy="323.75141652978425" opacity="0.9538064697515214"></circle><circle r="7.517165096946664" cx="714.8438161564029" cy="756.7047199992616" opacity="0.7849341441439982"></circle><circle r="5.27779764320601" cx="766.6760322948719" cy="716.544199956882" opacity="0.6011415238645058"></circle><circle r="6.252041744396862" cx="239.40108986410246" cy="490.17620749229474" opacity="0.5977707694256345"></circle><circle r="9.95099800472375" cx="627.4534005511665" cy="323.7160177676968" opacity="0.6685683321842688"></circle><circle r="10.169196786837249" cx="376.1402830370147" cy="365.5157311433189" opacity="0.8908241002242357"></circle><circle r="5.957613167993455" cx="26.545178021938337" cy="142.51355903706897" opacity="0.11985853841834765"></circle><circle r="6.209548166209949" cx="222.18226777515486" cy="175.32735486303508" opacity="0.3339898353717005"></circle><circle r="7.464639328488474" cx="741.3415209037031" cy="600.4550933627611" opacity="0.4883037103512975"></circle><circle r="6.914848938278647" cx="57.79563809733046" cy="170.95983375328825" opacity="0.48553275632930193"></circle><circle r="6.0405776853169355" cx="183.80542066144218" cy="550.8350498352452" opacity="0.5146628934036597"></circle><circle r="9.497143357066737" cx="749.8300030574027" cy="470.75537362556656" opacity="0.25395613780129433"></circle><circle r="10.702340906950006" cx="474.5856400283955" cy="169.9563224895668" opacity="0.6292488042321074"></circle><circle r="8.119316732697047" cx="413.06960821423263" cy="227.10378143473432" opacity="0.2022478943857092"></circle><circle r="7.409901728247471" cx="643.9305397489835" cy="151.0754431954924" opacity="0.7046743101570307"></circle><circle r="5.2950469329853105" cx="112.6583195840333" cy="519.8138116383525" opacity="0.193432190409034"></circle><circle r="5.944631399749044" cx="61.703996031356205" cy="296.15777866145993" opacity="0.30508893811398247"></circle><circle r="6.327939938279618" cx="477.5057540930408" cy="517.9976984198604" opacity="0.24860492013170035"></circle><circle r="8.685103873185085" cx="89.63481761553385" cy="172.46784860100362" opacity="0.680048706180608"></circle><circle r="6.466420000139563" cx="607.9095198310811" cy="126.27897683918103" opacity="0.5457988663964483"></circle><circle r="9.95892685727281" cx="260.53039337023426" cy="78.40730408511057" opacity="0.40834437442772986"></circle><circle r="6.725783659233494" cx="460.6951403753888" cy="222.4304025570347" opacity="0.7636728875657511"></circle><circle r="6.475368250193993" cx="90.26329074307803" cy="373.1578357509881" opacity="0.37103210645738804"></circle><circle r="4.571496098496843" cx="665.2154538411128" cy="227.2817093727121" opacity="0.26131306053673353"></circle><circle r="4.231545516262696" cx="790.6213017072429" cy="210.83282624686686" opacity="0.9403506836201327"></circle><circle r="6.605024695865239" cx="185.49174596337633" cy="584.3875012801227" opacity="0.8988666426063049"></circle><circle r="6.787085399835982" cx="165.56487887332543" cy="472.1545708457052" opacity="0.29331282852868645"></circle><circle r="9.241000738370825" cx="419.26206764477286" cy="580.0047593305877" opacity="0.19815210954934703"></circle><circle r="6.857288323606296" cx="579.6798000299854" cy="359.01047742262887" opacity="0.6502010425763564"></circle><circle r="4.351660503293257" cx="693.7294622861556" cy="254.64875852129077" opacity="0.1503171467241676"></circle><circle r="4.516215122201801" cx="576.543517562325" cy="63.40704881045056" opacity="0.30840882424221794"></circle><circle r="9.120051880997268" cx="678.4479687245555" cy="62.966735519251245" opacity="0.5614280275297028"></circle><circle r="9.142274813991424" cx="700.0767924319592" cy="475.58653203224236" opacity="0.2542216987062418"></circle><circle r="5.106362179534473" cx="548.79443755946" cy="606.5318622020897" opacity="0.2802790442884647"></circle><circle r="5.914502858782068" cx="23.617310830745115" cy="16.646945929929707" opacity="0.2069092721780848"></circle><circle r="6.283589541771306" cx="37.05752013745853" cy="254.35581814686716" opacity="0.1834797826470223"></circle><circle r="6.155054863530742" cx="511.41716106600296" cy="151.98480933417906" opacity="0.29096122707440364"></circle><circle r="9.766635098685434" cx="658.7902425480346" cy="624.1544426146477" opacity="0.8973103733571707"></circle><circle r="4.486897093158728" cx="688.4661693806272" cy="168.93555468173767" opacity="0.8565539605422213"></circle><circle r="5.378366439457068" cx="60.988718944143116" cy="224.59082069925535" opacity="0.6517764503129182"></circle><circle r="7.582202492762226" cx="99.75199454268521" cy="415.7023378210894" opacity="0.2959515029453178"></circle><circle r="7.900850939718646" cx="181.44197790720287" cy="267.86400584766415" opacity="0.41586673841354904"></circle><circle r="6.495097811067389" cx="593.6122329943172" cy="453.0017998280715" opacity="0.3779402973076357"></circle><circle r="10.244777840367057" cx="520.6280323860417" cy="473.71374782352257" opacity="0.7118400114794731"></circle><circle r="4.877622550613703" cx="177.1333365923541" cy="620.6383328122722" opacity="0.7286768310673281"></circle><circle r="7.566241585440462" cx="65.57408507161861" cy="479.8475206159501" opacity="0.25602546993615916"></circle><circle r="8.05105927582962" cx="20.563896836094425" cy="455.54657875878354" opacity="0.4778849645418204"></circle><circle r="8.39651702886264" cx="291.0300423862034" cy="587.6540565892869" opacity="0.3171984244932992"></circle><circle r="8.475672969531585" cx="417.01574104260004" cy="321.56119928108706" opacity="0.5086052538621031"></circle><circle r="6.378328596109502" cx="308.70723753338586" cy="451.9963587036806" opacity="0.1246555879479339"></circle><circle r="8.582306156559516" cx="604.8912187639482" cy="409.4576946472744" opacity="0.23154468339859857"></circle><circle r="7.701377480930429" cx="252.3047688409183" cy="20.64393322095718" opacity="0.4560406996543458"></circle><circle r="11.532812105511546" cx="301.42081479033845" cy="686.8934800230052" opacity="0.8575351746536569"></circle><circle r="5.9310835819004835" cx="440.9325910705667" cy="452.92148253935045" opacity="0.3605467820878159"></circle><circle r="7.660569566611683" cx="358.23540492452247" cy="412.40104622477094" opacity="0.3728217087880801"></circle><circle r="7.044767028719937" cx="782.6379045750313" cy="14.189548594547166" opacity="0.7720411905997512"></circle><circle r="7.639233077475618" cx="138.01909994769662" cy="239.11235920403104" opacity="0.8443250615109938"></circle><circle r="7.901811540359346" cx="230.07060731450645" cy="655.754633048341" opacity="0.809268469253242"></circle><circle r="7.013519394064685" cx="81.47423929051516" cy="557.9592897718127" opacity="0.7458864875558652"></circle><circle r="9.373083077367061" cx="234.17418367740567" cy="126.37024468434039" opacity="0.8914016557077543"></circle><circle r="7.544975019093053" cx="519.453508481134" cy="575.0056837755991" opacity="0.7223248403577524"></circle><circle r="5.8166226558933225" cx="170.03371782715107" cy="680.8651586751956" opacity="0.7858940112398085"></circle><circle r="4.91660903847123" cx="472.62761501326816" cy="80.7193364878105" opacity="0.8071657620569983"></circle><circle r="7.665455385826792" cx="49.864397568618124" cy="399.13500665005296" opacity="0.11813101921325683"></circle><circle r="4.635045627862829" cx="202.91429540278855" cy="502.71480610581796" opacity="0.860023895093649"></circle><circle r="9.957211013465136" cx="698.3558879980278" cy="669.0686920474502" opacity="0.42587390383058144"></circle><circle r="5.804183539368181" cx="579.8527133613321" cy="585.8859585702069" opacity="0.681983236603351"></circle><circle r="6.9748438287902905" cx="69.8682981198651" cy="28.803440321964715" opacity="0.38283611590245425"></circle><circle r="8.95524945920629" cx="489.239010292642" cy="729.2377006764635" opacity="0.7042297435727977"></circle><circle r="4.906868187562472" cx="504.1224225586536" cy="83.82157979653593" opacity="0.15425064453638723"></circle><circle r="8.099099117110448" cx="234.3001302845856" cy="571.6162495591435" opacity="0.9188410721094354"></circle><circle r="6.368612809457664" cx="175.52939529267184" cy="399.0935886963147" opacity="0.38867840007392274"></circle><circle r="11.56946011114978" cx="194.9069987127003" cy="93.73883925830656" opacity="0.10342885326562276"></circle><circle r="6.9806469786371155" cx="561.025080806148" cy="424.1873033107763" opacity="0.13031630422665846"></circle><circle r="4.705992514875151" cx="531.5614410598391" cy="75.18677555422396" opacity="0.5421927948355861"></circle><circle r="5.527219396039036" cx="715.2689786287388" cy="514.4208693833249" opacity="0.13053061805389443"></circle><circle r="9.90438059630755" cx="708.2945101215003" cy="90.05972760161777" opacity="0.7263880489275237"></circle><circle r="5.070692918251954" cx="562.2813819690667" cy="688.4587535020897" opacity="0.4961281362872789"></circle><circle r="7.2529847347027285" cx="146.78788212719337" cy="552.9064317442181" opacity="0.13520580814851713"></circle><circle r="7.8401684630855115" cx="549.5481997848614" cy="17.728210572117852" opacity="0.8771265832635515"></circle><circle r="6.969441202512138" cx="64.62855075151909" cy="610.4644599274778" opacity="0.25845463073291153"></circle><circle r="10.111545862411907" cx="778.794917309013" cy="387.41671664329925" opacity="0.12017203419681641"></circle><circle r="5.6171652052160805" cx="586.0471672922832" cy="712.5570779976161" opacity="0.43462590828305425"></circle><circle r="4.544089881472522" cx="575.7038709557202" cy="652.6926069797796" opacity="0.15820881856963634"></circle><circle r="11.586678825180964" cx="455.81702866891374" cy="775.402736083807" opacity="0.3516740754365524"></circle><circle r="7.499815604552087" cx="715.8485594577377" cy="188.02541101768264" opacity="0.548945871077779"></circle><circle r="10.82311645910329" cx="534.730947982817" cy="370.46078320273267" opacity="0.4649330506897138"></circle><circle r="9.443670701392051" cx="430.27643267935247" cy="713.2675884360806" opacity="0.25216642706645864"></circle><circle r="5.836881212088802" cx="213.27068154210343" cy="602.7598061969069" opacity="0.23988390973911125"></circle><circle r="4.637882819739017" cx="646.868736640872" cy="725.4501455037381" opacity="0.5585823778617512"></circle><circle r="6.115089624172966" cx="176.8444322853497" cy="18.73705828307832" opacity="0.6070566575033823"></circle><circle r="8.0910458167202" cx="19.59203963901671" cy="357.15465218172596" opacity="0.841654106246018"></circle><circle r="7.0423301445307755" cx="565.9552927786485" cy="776.2162302829474" opacity="0.22424782081634403"></circle><circle r="7.581550645950331" cx="607.4535945836963" cy="214.83493334811536" opacity="0.5450263776072247"></circle><circle r="6.320127894754663" cx="733.6214217053728" cy="645.8469636009045" opacity="0.1590963781669524"></circle><circle r="6.177973387103976" cx="561.5105624105448" cy="202.81629504098782" opacity="0.587396927447039"></circle><circle r="4.0402144073432655" cx="761.4468281027532" cy="573.4753576432829" opacity="0.38650698966533215"></circle><circle r="7.603084485664212" cx="135.9722080784587" cy="490.25501591881795" opacity="0.8853033307919651"></circle><circle r="5.482790463309774" cx="397.0035076798517" cy="120.11454705911156" opacity="0.4358284454927286"></circle><circle r="8.581233590635826" cx="327.37588696777743" cy="377.2635614603496" opacity="0.9608492242722217"></circle><circle r="5.485914095606477" cx="83.81350202382474" cy="252.78764143287535" opacity="0.8144174223327908"></circle><circle r="5.524571567606753" cx="762.0527951414566" cy="318.309210939595" opacity="0.40482089639204133"></circle><circle r="6.3063339392161915" cx="709.5236856400584" cy="20.78596698410498" opacity="0.9453371649677652"></circle><circle r="5.5747692411823415" cx="756.7839077297235" cy="248.2790399572731" opacity="0.2417626094033867"></circle><circle r="6.207990318480663" cx="321.7366167420123" cy="491.24715722247004" opacity="0.847423873667222"></circle><circle r="8.865274593683313" cx="580.9174672524896" cy="300.0736166829309" opacity="0.2306150970419282"></circle><circle r="5.926086447777403" cx="345.964825651538" cy="17.289587273671142" opacity="0.7570405922562863"></circle><circle r="6.612475307057334" cx="747.5659013177651" cy="281.7376758137732" opacity="0.491654164966264"></circle><circle r="8.488696600651842" cx="193.16717275868336" cy="719.6296095965021" opacity="0.5923742084306491"></circle><circle r="7.225066409704243" cx="462.8728154509689" cy="584.5828209638145" opacity="0.17762615261295878"></circle><circle r="5.039467919313444" cx="127.99706542056823" cy="12.92251866322802" opacity="0.30622591322602577"></circle><circle r="6.904479380169551" cx="644.7987335928967" cy="24.61342644122123" opacity="0.6947411796396443"></circle><circle r="8.812364094061437" cx="614.8751086170691" cy="485.1467776903061" opacity="0.9599291110374901"></circle><circle r="6.588345363296565" cx="400.46442128615615" cy="528.2155404204715" opacity="0.143968352528008"></circle><circle r="6.814769050800729" cx="319.4155570622623" cy="549.9935404880343" opacity="0.5937701060090109"></circle><circle r="6.660915591387663" cx="132.23880273441296" cy="131.3858735654648" opacity="0.9654793137685894"></circle><circle r="8.99040665271503" cx="163.88346532520214" cy="59.16913724529977" opacity="0.9646687517512001"></circle><circle r="8.303195823202307" cx="325.7394831664661" cy="642.293425588946" opacity="0.7548186321589596"></circle><circle r="7.810621444635725" cx="463.2329520391196" cy="326.04045204434215" opacity="0.4904337078987403"></circle><circle r="5.503851956855149" cx="668.3478761178351" cy="352.4036063720907" opacity="0.539485197760285"></circle><circle r="6.370671754632286" cx="240.06154095937396" cy="448.0055070135115" opacity="0.44492103747931533"></circle><circle r="8.052340299233457" cx="389.7595188409035" cy="263.80841038556844" opacity="0.7293321056626694"></circle><circle r="7.273953141549502" cx="686.033054736716" cy="579.4468292030383" opacity="0.7991758961069961"></circle><circle r="5.991697848279466" cx="80.38576293726078" cy="332.30449158762235" opacity="0.3307712079840301"></circle><circle r="6.47451423431151" cx="552.6645870324294" cy="53.5351596292095" opacity="0.23709098076930876"></circle><circle r="7.12160439637108" cx="564.6515313575617" cy="128.19175897887717" opacity="0.8974911776456054"></circle><circle r="5.172222704337992" cx="15.917534825218912" cy="179.68154986269838" opacity="0.5915897537461944"></circle><circle r="8.057456747174752" cx="768.2364204288359" cy="676.69127031359" opacity="0.7041463545726503"></circle><circle r="9.401215077294788" cx="301.94027961184133" cy="35.20875013872139" opacity="0.6351881410370268"></circle><circle r="4.274823902383795" cx="268.4725405022788" cy="529.3590206754777" opacity="0.35284377998545513"></circle><circle r="10.405583208384428" cx="496.82607274070176" cy="344.7665518803528" opacity="0.2967869680282054"></circle><circle r="8.153277802853331" cx="106.44382382541623" cy="615.492164404558" opacity="0.19746915169488674"></circle><circle r="9.282166896163275" cx="560.6532861232849" cy="499.8427175562949" opacity="0.8594435700834692"></circle><circle r="6.871062634451549" cx="212.88209412581278" cy="530.1420077471122" opacity="0.2429431514245443"></circle><circle r="6.079527266785059" cx="164.23404422713406" cy="195.43029678999733" opacity="0.7116261803586935"></circle><circle r="7.1636951913947335" cx="772.4810764798807" cy="105.70889004654667" opacity="0.2593385615284628"></circle><circle r="5.8709281715921176" cx="14.655884270936046" cy="226.1387034086092" opacity="0.815622383825881"></circle><circle r="9.380679673158555" cx="401.1093870617062" cy="72.32514110089531" opacity="0.7087736985256582"></circle><circle r="12.126722127470785" cx="359.11173163488485" cy="585.9039978528864" opacity="0.46853309964006973"></circle><circle r="6.331186205422936" cx="604.5081436404055" cy="634.5726440505816" opacity="0.1060638345419339"></circle><circle r="6.08347060218284" cx="228.0032606712377" cy="690.8147287753151" opacity="0.4435196757967731"></circle><circle r="8.147178869348775" cx="506.2098004175802" cy="205.70496485919298" opacity="0.46523596474321804"></circle><circle r="8.558271831065962" cx="726.2830250327329" cy="318.03903891057263" opacity="0.7061053348093244"></circle><circle r="10.901987659855402" cx="424.55077163051607" cy="373.26188486190233" opacity="0.8646508479534304"></circle><circle r="5.893462347144493" cx="612.127952705922" cy="687.5419369816142" opacity="0.7240605896366197"></circle><circle r="9.65195409110278" cx="256.2722029768281" cy="288.21180904340196" opacity="0.284540107841744"></circle><circle r="6.691150154317836" cx="670.2767377438986" cy="776.8265850780174" opacity="0.6729749942878221"></circle><circle r="5.544912235048703" cx="16.559449472412524" cy="536.7196253480823" opacity="0.7307620407393012"></circle><circle r="10.9774189165526" cx="359.8338320003122" cy="459.89356726635816" opacity="0.8161173098339081"></circle><circle r="7.588506017718066" cx="213.6248038065208" cy="44.95470993394368" opacity="0.7387168059315039"></circle><circle r="8.71017979082437" cx="768.4413781304609" cy="139.41786417872376" opacity="0.8314897508892802"></circle><circle r="8.23388974054736" cx="255.85415444475217" cy="722.4438619182683" opacity="0.804035863873949"></circle><circle r="5.577401369997638" cx="429.8280759444688" cy="196.50482224079158" opacity="0.9323758413130431"></circle><circle r="8.764218799331307" cx="70.77117705301119" cy="677.7106119410823" opacity="0.22453180657541216"></circle><circle r="6.13948490553472" cx="29.72133463598635" cy="427.01059878678086" opacity="0.21616720198618622"></circle><circle r="7.883193984801542" cx="105.41628178840125" cy="780.8899938322342" opacity="0.9477881155682949"></circle><circle r="7.0840325664789585" cx="399.8158396369987" cy="170.52634673654595" opacity="0.8888390776938562"></circle><circle r="7.949496268206148" cx="560.5484520894262" cy="545.7704198120865" opacity="0.6899679271996723"></circle><circle r="4.895988587933432" cx="775.683295963188" cy="497.1141854262317" opacity="0.278482053351113"></circle><circle r="7.829081505313788" cx="327.32892752027453" cy="158.24689201099304" opacity="0.3615911220802581"></circle><circle r="8.648459186079931" cx="321.78397233301615" cy="205.1075083541213" opacity="0.7447453087064877"></circle><circle r="9.116045061819019" cx="437.0387808413833" cy="159.25205359725803" opacity="0.4022833985313563"></circle><circle r="5.078649719665545" cx="781.8711755544886" cy="755.4589920895938" opacity="0.2743604727958396"></circle><circle r="5.754083883538889" cx="745.3758289117964" cy="76.85973929363365" opacity="0.17819862716887702"></circle><circle r="7.364657817487521" cx="361.10889915387276" cy="97.69063269246826" opacity="0.3136403708774585"></circle><circle r="5.5605621722879075" cx="189.29375701076327" cy="653.2787047535606" opacity="0.804188583786885"></circle><circle r="7.36227283581491" cx="117.18759529019648" cy="43.86024109166742" opacity="0.792548981127659"></circle><circle r="8.067119566806115" cx="777.153672840589" cy="430.4541516846381" opacity="0.11236273453099573"></circle><circle r="7.893971897628685" cx="384.50961912597035" cy="676.253460118839" opacity="0.144390091942174"></circle><circle r="7.928015295259396" cx="438.4636284881326" cy="259.6036760022207" opacity="0.12826981758967904"></circle><circle r="10.710204320723925" cx="251.16120227929346" cy="338.13290403501" opacity="0.7255898459373038"></circle><circle r="8.732367184101129" cx="620.3709196474998" cy="177.82556381734616" opacity="0.23576713692606105"></circle><circle r="6.072448413870685" cx="518.1669469906315" cy="630.0032673846913" opacity="0.2569545507700458"></circle><circle r="5.6764861434544684" cx="155.09951590745055" cy="163.84478819890901" opacity="0.6156002220445891"></circle><circle r="9.150069772253671" cx="294.2875771468383" cy="299.1289804795649" opacity="0.6764215011616567"></circle><circle r="5.168550946974575" cx="46.436779752844544" cy="200.81181977482697" opacity="0.24105987414454852"></circle><circle r="5.6520497303923705" cx="180.31395436178065" cy="505.13030365923214" opacity="0.4560182269076619"></circle><circle r="10.846483487781875" cx="144.85561707724185" cy="437.0157310102215" opacity="0.3964675344619675"></circle><circle r="7.510471466784704" cx="722.051757739716" cy="133.77340255812663" opacity="0.43547179469656105"></circle><circle r="9.951820373460286" cx="612.901126718615" cy="527.9886463181786" opacity="0.13498183410624662"></circle><circle r="5.570647478867174" cx="316.2339630406917" cy="335.56432255492666" opacity="0.3617409187478777"></circle><circle r="6.432692907697483" cx="780.3219432765054" cy="608.6662895581899" opacity="0.3562581590743451"></circle><circle r="5.693801692747053" cx="489.1861477945939" cy="614.2733854052493" opacity="0.38127483756339586"></circle><circle r="8.53051388496808" cx="545.1042880721129" cy="726.756681605921" opacity="0.5965489390251714"></circle><circle r="5.44911657854615" cx="603.8412522695471" cy="65.96371893350455" opacity="0.6024433624838504"></circle><circle r="6.447544796701616" cx="338.8897189330165" cy="240.6906395074519" opacity="0.2507145050632751"></circle><circle r="5.531645759918476" cx="787.2023572856803" cy="346.5707819108059" opacity="0.2917411195937313"></circle><circle r="9.216360189460524" cx="668.7150436633079" cy="515.0042218457955" opacity="0.4815392597842505"></circle><circle r="10.493786021870232" cx="401.84267249142056" cy="767.3589624656379" opacity="0.8608601420359415"></circle><circle r="9.800860606634167" cx="225.1050173461986" cy="396.5852772791943" opacity="0.2766282646174107"></circle><circle r="6.243569756180299" cx="555.6205501173388" cy="95.5570574728921" opacity="0.9385079641255719"></circle><circle r="11.63275786447099" cx="383.7091688142416" cy="630.1761897844856" opacity="0.47805776646410025"></circle><circle r="7.209944252329295" cx="710.8517188555672" cy="283.563865570399" opacity="0.37318188963693366"></circle><circle r="5.660033071301384" cx="75.87902146464683" cy="127.60008841780954" opacity="0.7894806953020381"></circle><circle r="6.062237926419068" cx="651.85993011514" cy="107.37765945385503" opacity="0.1299484429745402"></circle><circle r="4.4096403996065705" cx="35.142877060456534" cy="109.7250993324709" opacity="0.8963782283811443"></circle><circle r="6.281943644763549" cx="13.84834429929823" cy="392.8252721215558" opacity="0.5144123053375819"></circle><circle r="6.682052421985753" cx="721.1900937218974" cy="232.35609478663298" opacity="0.3766515306762288"></circle><circle r="11.158811637923389" cx="397.5669047686587" cy="24.512705008077695" opacity="0.6771477695950773"></circle><circle r="7.95451007884013" cx="132.94113021240358" cy="388.2767297428002" opacity="0.10748534096819802"></circle><circle r="4.782898501033711" cx="677.2935731646327" cy="20.714523907874085" opacity="0.345143308601253"></circle><circle r="9.947484805092383" cx="19.783142917986403" cy="590.4570590848334" opacity="0.5615286680561766"></circle><circle r="6.3623593022927" cx="679.7238998003746" cy="713.2976644625331" opacity="0.7383057211098414"></circle><circle r="8.011645374806635" cx="753.6707393672996" cy="783.7120700753725" opacity="0.8770487316799054"></circle><circle r="10.257461817875686" cx="272.2445500596223" cy="479.463973178875" opacity="0.6190497117785492"></circle><circle r="6.908273682538851" cx="558.8789219264607" cy="247.09469210410361" opacity="0.40894484733987624"></circle><circle r="9.603277071172643" cx="94.20316078987014" cy="737.1581686355509" opacity="0.9262085249332359"></circle><circle r="9.3187832509324" cx="531.0320868683906" cy="308.0283354249651" opacity="0.21301060439356972"></circle><circle r="6.394981420035551" cx="585.2082288696099" cy="163.02422918227614" opacity="0.20096869516002452"></circle><circle r="6.478770154579006" cx="102.11240992128901" cy="212.30225449416932" opacity="0.6393585975955813"></circle><circle r="6.64050652163807" cx="260.11001378248466" cy="175.40735345657876" opacity="0.5893219405939466"></circle><circle r="7.9735775181795745" cx="236.8180489532162" cy="242.35040226312546" opacity="0.6636585441162306"></circle><circle r="6.118783822900394" cx="786.4046240483989" cy="557.9608450673828" opacity="0.6343246512494028"></circle><circle r="9.976543355724205" cx="273.01309575655193" cy="639.3469836326472" opacity="0.438324696440878"></circle><circle r="5.123824578153607" cx="636.3852982482223" cy="74.94521577460604" opacity="0.14606005300514946"></circle><circle r="5.095212928281201" cx="781.3116793276565" cy="171.74894105746407" opacity="0.4631708422927585"></circle><circle r="4.750477184357134" cx="185.39186691338807" cy="224.87830578771005" opacity="0.41474077369795026"></circle><circle r="5.283591598371146" cx="190.0668383998301" cy="457.4107862291622" opacity="0.40266150653377286"></circle><circle r="6.030700139348439" cx="665.7004425687924" cy="266.3206732428358" opacity="0.6684243914658754"></circle><circle r="9.420563375022981" cx="515.5161710425065" cy="775.1974219929306" opacity="0.6077268829077962"></circle><circle r="6.983567288866977" cx="528.3232797696547" cy="118.78703358104735" opacity="0.2046518480320525"></circle><circle r="14.885138389136676" cx="185.87419841076093" cy="769.2966726828319" opacity="0.12338470751692848"></circle><circle r="7.306758724841661" cx="45.94330112486602" cy="560.8984850181779" opacity="0.36720318296785615"></circle><circle r="10.87361750929782" cx="312.63635793198233" cy="738.0399753232351" opacity="0.5130275977419113"></circle><circle r="7.615209555713788" cx="747.7452729295496" cy="16.65673959044901" opacity="0.9262840429155914"></circle><circle r="7.568406581009318" cx="658.7310056631811" cy="194.65503999033984" opacity="0.9682994065342583"></circle><circle r="7.925317606832275" cx="707.3916596468125" cy="615.5953849632385" opacity="0.5635760833805918"></circle><circle r="5.472506993496015" cx="206.61281158245862" cy="436.2748111672157" opacity="0.4695756611644595"></circle><circle r="7.8814137111805405" cx="437.8134645876974" cy="113.7236020330043" opacity="0.579414260990873"></circle><circle r="9.11649917322975" cx="273.2375438961505" cy="378.45466562827914" opacity="0.49366220715251563"></circle><circle r="3.9670471243461907" cx="591.3261393326146" cy="97.3419131159584" opacity="0.2533991167142817"></circle><circle r="8.083799832721322" cx="163.45231179061912" cy="127.15166954657863" opacity="0.9130228243867368"></circle><circle r="7.562838630950058" cx="361.8995301540811" cy="718.8642472603183" opacity="0.8183670939187648"></circle><circle r="5.274842813972406" cx="293.32304361045277" cy="516.8859922605411" opacity="0.18058765082345557"></circle><circle r="6.506331606378511" cx="503.32742469970816" cy="541.7810720253552" opacity="0.5132648780037056"></circle><circle r="6.6870274774446425" cx="784.7024957800851" cy="300.02919233904436" opacity="0.4921233375999712"></circle><circle r="6.788023934463663" cx="634.8069154329025" cy="276.41012005909596" opacity="0.12415135455127092"></circle><circle r="6.725754944356002" cx="98.16644099956409" cy="287.4507838509009" opacity="0.25209210560689294"></circle><circle r="9.237285364569061" cx="132.45222986392034" cy="706.3347974413355" opacity="0.876410388379114"></circle><circle r="6.3074220098187155" cx="609.1156033200141" cy="734.2372244239274" opacity="0.2751152136297603"></circle><circle r="5.865886503874255" cx="647.2949298717507" cy="557.4187905363165" opacity="0.722798439769311"></circle><circle r="8.378703328145463" cx="346.06378525726217" cy="777.8876717532013" opacity="0.775829532571439"></circle><circle r="6.432893799671979" cx="645.3570035777185" cy="667.9204807298892" opacity="0.4979501502902275"></circle><circle r="6.324447962027944" cx="359.3109092384034" cy="521.8352622716947" opacity="0.14625685390832588"></circle><circle r="10.751677916973364" cx="208.163010850464" cy="298.9829706655652" opacity="0.27605784064000294"></circle><circle r="4.9148354577531705" cx="443.9050539630521" cy="292.07211986311177" opacity="0.7825783569961949"></circle><circle r="9.937412415922317" cx="287.79781381320265" cy="132.76347749424647" opacity="0.7347294144514663"></circle><circle r="9.102087782481364" cx="471.1995137634213" cy="378.9668779861112" opacity="0.552605974749234"></circle><circle r="10.966920640541524" cx="363.2501999988097" cy="152.35612263390226" opacity="0.6468160481169476"></circle><circle r="5.58486309128321" cx="315.33306090112757" cy="98.2933031135608" opacity="0.6503061685464943"></circle><circle r="5.968876957018681" cx="735.312326089498" cy="401.18036188414044" opacity="0.9579868521104363"></circle><circle r="5.434243158874353" cx="239.96450088864682" cy="616.2005128877879" opacity="0.7031109630476832"></circle><circle r="8.66659873528701" cx="139.83956391980485" cy="284.290991919257" opacity="0.9987144375553592"></circle><circle r="6.505395987590116" cx="608.0878421208882" cy="255.07290789571104" opacity="0.8838733140874878"></circle><circle r="4.318922952490015" cx="615.1244180436361" cy="30.239398245210023" opacity="0.3249929033311349"></circle><circle r="7.084606469156532" cx="748.77003865039" cy="190.60956500646606" opacity="0.44352301372607006"></circle><circle r="5.587345922572374" cx="302.27476255640835" cy="415.09384409150897" opacity="0.9586628618456042"></circle><circle r="7.95896557016646" cx="140.2735228275788" cy="347.40488392970207" opacity="0.4412844497278331"></circle><circle r="5.335977614057407" cx="441.38551562359135" cy="59.065993618811305" opacity="0.667071872488323"></circle><circle r="4.634815392995469" cx="587.9813973614012" cy="17.910695160759783" opacity="0.43183884846600995"></circle><circle r="5.763671066688159" cx="769.3431257903701" cy="523.271419146232" opacity="0.6308129935011741"></circle><circle r="4.998803706498688" cx="483.0696243201251" cy="275.62136209176214" opacity="0.9032371009318728"></circle><circle r="7.770511749485285" cx="90.55845735743576" cy="81.35218864572454" opacity="0.5950678000809762"></circle><circle r="5.692342606895775" cx="691.0761508238055" cy="437.00606975948426" opacity="0.7893076197484702"></circle><circle r="8.200706081160446" cx="372.47321875654353" cy="208.35501225996984" opacity="0.3727198874344465"></circle><circle r="5.172362922363424" cx="636.6337451799758" cy="397.47012077673855" opacity="0.46065919726076276"></circle><circle r="8.86068594603137" cx="54.64979295730595" cy="361.1233116257906" opacity="0.31047193721366917"></circle><circle r="5.218741076007998" cx="25.307084518168498" cy="322.91556519949995" opacity="0.3251853584758091"></circle><circle r="10.330229975892998" cx="266.715723355386" cy="775.8136003530587" opacity="0.5028555757479283"></circle><circle r="9.91347748867947" cx="614.4071635383891" cy="774.7407789166252" opacity="0.7068133827957043"></circle><circle r="4.39564650406545" cx="81.3169086352528" cy="516.2125071604942" opacity="0.4911352995180486"></circle><circle r="8.01917607333212" cx="138.3907062187493" cy="92.75838320535803" opacity="0.3660977967195489"></circle><circle r="6.515682781393888" cx="740.1698380397504" cy="365.73203300379686" opacity="0.5111290951690315"></circle><circle r="6.004284077079647" cx="125.13787753872629" cy="179.43931421014352" opacity="0.965433762292089"></circle><circle r="7.780897119648941" cx="543.2564271532862" cy="168.16742468551308" opacity="0.6938061871717921"></circle><circle r="11.174242836095237" cx="194.02347892659432" cy="347.13156723073354" opacity="0.6423798503363976"></circle><circle r="6.550748734893838" cx="534.2141982956531" cy="664.4171294976451" opacity="0.12941694691272027"></circle><circle r="8.594475220998474" cx="512.8307166756996" cy="415.0892604115827" opacity="0.3085307644225271"></circle><circle r="5.435978850423819" cx="265.8873562490027" cy="430.4510876231573" opacity="0.9835937072605744"></circle><circle r="4.598666394247734" cx="51.32535801713918" cy="521.0775715626822" opacity="0.1862247877900946"></circle><circle r="6.672713653509886" cx="133.33402092414852" cy="647.2680038932315" opacity="0.9515728757636961"></circle><circle r="8.814830456830562" cx="374.70841347483855" cy="315.45094346310196" opacity="0.5186789631127185"></circle><circle r="8.849737451099513" cx="514.2453346776398" cy="252.5865779466201" opacity="0.39034852005264853"></circle><circle r="7.544382489769261" cx="726.5305454465578" cy="434.3980006984041" opacity="0.8654882580244098"></circle></g></svg>