<svg version="1.2" xmlns="http://www.w3.org/2000/svg" viewBox="0 0 380 252" width="15" height="10">
	<title>be_svg-svg</title>
	<style>
		.s0 { fill: #23d1fb } 
	</style>
	<g id="Layer">
		<g id="Layer">
			<path id="Layer" class="s0" d="m316.9 0.8h-316.9v25 2.9 109.8h0.1q1.4 23.9 19 40.6c10.8 10.1 25.1 16.1 40 16.5q26.1 0.6 44.4-17.8 17.8-17.7 17.8-43 0-25-17.8-42.7-17.7-17.8-42.8-17.8v28.5q13.2 0 22.7 9.4 9.4 9.5 9.4 22.6 0 13.3-9.4 22.9-9.5 9.3-22.7 9.3-13.3 0-22.8-9.3-9.3-9.6-9.3-22.9v-106.1h271.1l48.9 97.4-48.9 97.4h-299.7v27.8h316.9l3.9-7.7 58.9-117.5z"/>
			<path id="Layer" fill-rule="evenodd" class="s0" d="m257.8 149.2h-89.5q8.9 17.8 28.9 17.8h32v28.6h-35.6v-0.2q-24-1.3-40.6-19c-10.2-10.7-16.2-25.1-16.5-39.9q-0.6-26.1 17.8-44.4 17.7-17.8 42.9-17.8 25.1 0 42.8 17.8 17.8 17.7 17.8 42.7zm-31.9-28.5q-8.9-17.8-28.7-17.8-19.9 0-28.9 17.8z"/>
		</g>
		<path id="Layer" class="s0" d="m322.5 121.4c3.4 14.9-9.7 27.9-24.6 24.6-7.5-1.6-13.6-7.7-15.3-15.3-3.3-14.9 9.7-27.9 24.7-24.6 7.5 1.7 13.6 7.7 15.2 15.3z"/>
	</g>
</svg>